
<svg width="134px" height="148px" viewBox="0 0 134 148" version="1.1" xmlns="http://www.w3.org/2000/svg" xmlns:xlink="http://www.w3.org/1999/xlink">
    <!-- Generator: Sketch 49.3 (51167) - http://www.bohemiancoding.com/sketch -->
    <desc>Created with Sketch.</desc>
    <defs></defs>
    <g id="Page-1" stroke="none" stroke-width="1" fill="none" fill-rule="evenodd">
        <g id="Discon" transform="translate(-121.000000, -155.000000)" fill-rule="nonzero">
            <g id="router" transform="translate(120.000000, 155.000000)">
                <path d="M105.642857,73.4238095 C106.572619,74.3532903 108.079762,74.3532903 109.009524,73.4238095 C121.076539,61.3274025 121.076539,41.7464071 109.009524,29.65 C108.411727,29.0310558 107.526481,28.7828271 106.69403,29.0007211 C105.861579,29.218615 105.211472,29.868722 104.993578,30.701173 C104.775684,31.5336241 105.023913,32.4188703 105.642857,33.0166667 C115.852226,43.253006 115.852226,59.8208035 105.642857,70.0571429 C104.713376,70.9869044 104.713376,72.494048 105.642857,73.4238095 Z" id="Shape" fill="#007E7A"></path>
                <path d="M92.1738095,59.9547619 C93.1035711,60.8842427 94.6107146,60.8842427 95.5404762,59.9547619 C100.189467,55.3056817 100.189467,47.7681279 95.5404762,43.1190476 C94.6062407,42.2167328 93.1212267,42.2296372 92.2028129,43.148051 C91.2843991,44.0664648 91.2714947,45.5514788 92.1738095,46.4857143 C94.9622519,49.2749989 94.9622519,53.7964296 92.1738095,56.5857143 C91.7267213,57.0323054 91.475508,57.6383113 91.475508,58.2702381 C91.475508,58.9021649 91.7267213,59.5081708 92.1738095,59.9547619 Z" id="Shape" fill="#007E7A"></path>
                <path d="M43.9761905,73.4238095 C44.9056713,72.494048 44.9056713,70.9869044 43.9761905,70.0571429 C33.7642028,59.8218864 33.7642028,43.2519231 43.9761905,33.0166667 C44.8785053,32.0824312 44.8656009,30.5974172 43.9471871,29.6790034 C43.0287733,28.7605896 41.5437593,28.7476852 40.6095238,29.65 C28.5398886,41.7453237 28.5398886,61.3284858 40.6095238,73.4238095 C41.5392854,74.3532903 43.0464289,74.3532903 43.9761905,73.4238095 Z" id="Shape" fill="#007E7A"></path>
                <path d="M57.4452381,59.9547619 C57.8923263,59.5081708 58.1435397,58.9021649 58.1435397,58.2702381 C58.1435397,57.6383113 57.8923263,57.0323054 57.4452381,56.5857143 C54.6567957,53.7964296 54.6567957,49.2749989 57.4452381,46.4857143 C58.3475529,45.5514788 58.3346485,44.0664648 57.4162347,43.148051 C56.4978209,42.2296372 55.0128069,42.2167328 54.0785714,43.1190476 C49.4295804,47.7681279 49.4295804,55.3056817 54.0785714,59.9547619 C55.008333,60.8842427 56.5154765,60.8842427 57.4452381,59.9547619 Z" id="Shape" fill="#007E7A"></path>
                <path d="M127.190476,105.142857 L22.4285714,105.142857 C18.4836804,105.142857 15.2857143,108.340823 15.2857143,112.285714 L15.2857143,131.333333 C15.2857143,135.278224 18.4836804,138.47619 22.4285714,138.47619 L24.8095238,138.47619 L24.8095238,145.619048 C24.8095238,146.934011 25.8755125,148 27.1904762,148 L46.2380952,148 C47.5530589,148 48.6190476,146.934011 48.6190476,145.619048 L48.6190476,138.47619 L101,138.47619 L101,145.619048 C101,146.934011 102.065989,148 103.380952,148 L122.428571,148 C123.743535,148 124.809524,146.934011 124.809524,145.619048 L124.809524,138.47619 L127.190476,138.47619 C131.135367,138.47619 134.333333,135.278224 134.333333,131.333333 L134.333333,112.285714 C134.333333,108.340823 131.135367,105.142857 127.190476,105.142857 Z M108.142857,114.666667 C112.087748,114.666667 115.285714,117.864633 115.285714,121.809524 C115.285714,125.754415 112.087748,128.952381 108.142857,128.952381 C104.197966,128.952381 101,125.754415 101,121.809524 C101,117.864633 104.197966,114.666667 108.142857,114.666667 Z M58.1428571,126.571429 C58.1428571,127.886392 57.0768685,128.952381 55.7619048,128.952381 L36.7142857,128.952381 C35.399322,128.952381 34.3333333,127.886392 34.3333333,126.571429 L34.3333333,117.047619 C34.3333333,115.732655 35.399322,114.666667 36.7142857,114.666667 L55.7619048,114.666667 C57.0768685,114.666667 58.1428571,115.732655 58.1428571,117.047619 L58.1428571,126.571429 Z M70.047619,128.952381 C66.102728,128.952381 62.9047619,125.754415 62.9047619,121.809524 C62.9047619,117.864633 66.102728,114.666667 70.047619,114.666667 C73.9925101,114.666667 77.1904762,117.864633 77.1904762,121.809524 C77.1904762,125.754415 73.9925101,128.952381 70.047619,128.952381 Z M89.0952381,128.952381 C85.150347,128.952381 81.952381,125.754415 81.952381,121.809524 C81.952381,117.864633 85.150347,114.666667 89.0952381,114.666667 C93.0401292,114.666667 96.2380952,117.864633 96.2380952,121.809524 C96.2380952,125.754415 93.0401292,128.952381 89.0952381,128.952381 Z" id="Shape" fill="#007E7A"></path>
                <path d="M82.3095238,50.1833333 C82.0127852,46.2606513 78.7434135,43.2292563 74.8095238,43.2292563 C70.8756341,43.2292563 67.6062624,46.2606513 67.3095238,50.1833333 L63.447619,100.380952 L86.1714286,100.380952 L82.3095238,50.1833333 Z" id="Shape" fill="#007E7A"></path>
                <g id="Group" fill="#121416">
                    <path d="M59.9642857,47.4714286 C59.0619709,48.405664 59.0748753,49.890678 59.9932891,50.8090918 C60.9117029,51.7275057 62.3967169,51.74041 63.3309524,50.8380952 C75.397694,38.7425043 75.397694,19.1622576 63.3309524,7.06666667 C62.3967169,6.16435188 60.9117029,6.17725625 59.9932891,7.09567006 C59.0748753,8.01408386 59.0619709,9.49909789 59.9642857,10.4333333 C70.1759996,20.6677736 70.1759996,37.2369883 59.9642857,47.4714286 Z" id="Shape"></path>
                    <path d="M53.2285714,40.7380952 C52.3262566,41.6723307 52.339161,43.1573447 53.2575748,44.0757585 C54.1759886,44.9941723 55.6610027,45.0070767 56.5952381,44.1047619 C64.9506145,35.7309307 64.9506145,22.1738313 56.5952381,13.8 C55.9974417,13.1810558 55.1121955,12.9328271 54.2797445,13.1507211 C53.4472934,13.368615 52.7971864,14.018722 52.5792925,14.851173 C52.3613986,15.6836241 52.6096272,16.5688703 53.2285714,17.1666667 C59.7289207,23.6793469 59.7289207,34.225415 53.2285714,40.7380952 Z" id="Shape"></path>
                    <path d="M70.7857143,1.12380952 C70.2045699,0.489121502 69.3261679,0.217418398 68.4881645,0.413142446 C67.6501611,0.608866495 66.9829885,1.24155396 66.7431067,2.0680008 C66.503225,2.89444765 66.7279709,3.78602042 67.3309524,4.4 C80.3910759,18.1631071 80.3910759,39.7416549 67.3309524,53.5047619 C66.7279709,54.1187415 66.503225,55.0103143 66.7431067,55.8367611 C66.9829885,56.6632079 67.6501611,57.2958954 68.4881645,57.4916195 C69.3261679,57.6873435 70.2045699,57.4156404 70.7857143,56.7809524 C85.5861549,41.1803899 85.5861549,16.724372 70.7857143,1.12380952 Z" id="Shape"></path>
                    <path d="M19.5571429,50.8380952 C20.1549392,51.4570395 21.0401855,51.7052681 21.8726365,51.4873742 C22.7050875,51.2694803 23.3551946,50.6193732 23.5730885,49.7869222 C23.7909824,48.9544712 23.5427538,48.0692249 22.9238095,47.4714286 C12.7042284,37.2402431 12.7042284,20.6645188 22.9238095,10.4333333 C23.5427538,9.83553698 23.7909824,8.95029073 23.5730885,8.11783971 C23.3551946,7.28538868 22.7050875,6.63528163 21.8726365,6.41738772 C21.0401855,6.19949382 20.1549392,6.44772242 19.5571429,7.06666667 C7.47728795,19.1568322 7.47728795,38.7479297 19.5571429,50.8380952 Z" id="Shape"></path>
                    <path d="M26.2928571,44.1047619 C27.2270926,45.0070767 28.7121066,44.9941723 29.6305204,44.0757585 C30.5489342,43.1573447 30.5618386,41.6723307 29.6595238,40.7380952 C23.1591745,34.225415 23.1591745,23.6793469 29.6595238,17.1666667 C30.2784681,16.5688703 30.5266967,15.6836241 30.3088028,14.851173 C30.0909088,14.018722 29.4408018,13.368615 28.6083508,13.1507211 C27.7758997,12.9328271 26.8906535,13.1810558 26.2928571,13.8 C17.9361705,22.1732893 17.9361705,35.7314726 26.2928571,44.1047619 Z" id="Shape"></path>
                    <path d="M15.5595238,4.4 C16.1625053,3.78602042 16.3872512,2.89444765 16.1473695,2.0680008 C15.9074877,1.24155396 15.2403151,0.608866495 14.4023117,0.413142446 C13.5643083,0.217418398 12.6859062,0.489121502 12.1047619,1.12380952 C-2.70289099,16.7214945 -2.70289099,41.1832674 12.1047619,56.7809524 C12.6859062,57.4156404 13.5643083,57.6873435 14.4023117,57.4916195 C15.2403151,57.2958954 15.9074877,56.6632079 16.1473695,55.8367611 C16.3872512,55.0103143 16.1625053,54.1187415 15.5595238,53.5047619 C2.49819838,39.7421344 2.49819838,18.1626275 15.5595238,4.4 Z" id="Shape"></path>
                    <path d="M44.4428571,40.4261905 C50.2400825,38.9172097 54.0130945,33.3355847 53.2524471,27.3936776 C52.4917997,21.4517704 47.4344437,17.0005563 41.4440476,17.0005563 C35.4536516,17.0005563 30.3962955,21.4517704 29.6356481,27.3936776 C28.8750007,33.3355847 32.6480127,38.9172097 38.4452381,40.4261905 L17.7309524,116.421429 C17.4837501,117.249514 17.7046561,118.146533 18.3081275,118.765125 C18.911599,119.383718 19.8028766,119.626752 20.6368255,119.400115 C21.4707744,119.173478 22.1164447,118.512758 22.3238095,117.67381 L27.0285714,100.380952 L55.8595238,100.380952 L60.5761905,117.67381 C60.7835553,118.512758 61.4292256,119.173478 62.2631745,119.400115 C63.0971234,119.626752 63.988401,119.383718 64.5918725,118.765125 C65.1953439,118.146533 65.4162499,117.249514 65.1690476,116.421429 L44.4428571,40.4261905 Z M34.3,28.952381 C34.3,25.0074899 37.4979661,21.8095238 41.4428571,21.8095238 C45.3877482,21.8095238 48.5857143,25.0074899 48.5857143,28.952381 C48.5857143,32.897272 45.3877482,36.0952381 41.4428571,36.0952381 C37.4979661,36.0952381 34.3,32.897272 34.3,28.952381 Z M41.4428571,47.5238095 L49.3666667,76.5714286 L33.5214286,76.5714286 L41.4428571,47.5238095 Z M28.3285714,95.6190476 L32.2238095,81.3333333 L50.6642857,81.3333333 L54.5714286,95.6190476 L28.3285714,95.6190476 Z" id="Shape"></path>
                </g>
            </g>
        </g>
    </g>
</svg>